<?xml version="1.0" encoding="UTF-8"?>
<svg width="16px" height="16px" viewBox="0 0 16 16" version="1.1" xmlns="http://www.w3.org/2000/svg" xmlns:xlink="http://www.w3.org/1999/xlink">
    <!-- Generator: Sketch 64 (93537) - https://sketch.com -->
    <title>UTTMA Logo</title>
    <desc>Created with Sketch.</desc>
    <g id="UTTMA-Logo" stroke="none" stroke-width="1" fill="none" fill-rule="evenodd">
        <path d="M8.99227788,0.56701593 L13.9922779,3.42415879 C14.6154279,3.7802445 15,4.44293138 15,5.16064507 L15,10.8393549 C15,11.5570686 14.6154279,12.2197555 13.9922779,12.5758412 L8.99227788,15.4329841 C8.37741254,15.7843357 7.62258746,15.7843357 7.00772212,15.4329841 L2.00772212,12.5758412 C1.38457213,12.2197555 1,11.5570686 1,10.8393549 L1,5.16064507 C1,4.44293138 1.38457213,3.7802445 2.00772212,3.42415879 L7.00772212,0.56701593 C7.62258746,0.215664309 8.37741254,0.215664309 8.99227788,0.56701593 Z" id="Outline" fill="#F5F0DD"></path>
        <path d="M8.50387103,1.29392476 L13.503871,4.21059143 C13.8110887,4.38980176 14,4.71870327 14,5.07437033 L14,6 L11,12.5 L5,12.5 L2,6 L2,5.07437033 C2,4.71870327 2.18891127,4.38980176 2.49612897,4.21059143 L7.49612897,1.29392476 C7.80749149,1.11229663 8.19250851,1.11229663 8.50387103,1.29392476 Z" id="Cube" fill="#73DFEB"></path>
        <path d="M12,6 L14,5 L14,10.9256297 C14,11.2812967 13.8110887,11.6101982 13.503871,11.7894086 L8.50387103,14.7060752 C8.19250851,14.8877034 7.80749149,14.8877034 7.49612897,14.7060752 L2.49612897,11.7894086 C2.18891127,11.6101982 2,11.2812967 2,10.9256297 L2,5 L4,6 L4,8 C4,10.209139 5.790861,12 8,12 C10.209139,12 12,10.209139 12,8 L12,6 Z" id="U" fill="#F8691F"></path>
        <g id="Shading" transform="translate(1.000000, 0.303502)">
            <path d="M0.0960879669,4.24454711 L7,7.69649779 L7,15.3929956 C6.6575774,15.3929956 6.31515479,15.3051577 6.00772212,15.1294819 L1.00772212,12.272339 C0.384572129,11.9162533 0,11.2535664 0,10.5358527 L0,4.85714286 C0,4.69882366 0.0187129604,4.54318202 0.0545718314,4.39291825 L0.0960879669,4.24454711 Z" id="Path" fill="#FFFFFF" style="mix-blend-mode: multiply;"></path>
            <path d="M14,4.85714286 L14,10.5358527 C14,11.2535664 13.6154279,11.9162533 12.9922779,12.272339 L7.99227788,15.1294819 C7.68484521,15.3051577 7.3424226,15.3929956 7,15.3929956 L7,7.69649779 L13.9035896,4.24354633 C13.9666187,4.43901304 14,4.64568975 14,4.85714286 Z" id="Path" fill="#EAEAEA" style="mix-blend-mode: multiply;"></path>
            <path d="M7.99227788,0.263513716 L12.9922779,3.12065657 C13.4320393,3.37194882 13.7529836,3.77593539 13.9037998,4.24419843 L7,7.69649779 L0.0962002335,4.24419843 C0.247016433,3.77593539 0.567960688,3.37194882 1.00772212,3.12065657 L6.00772212,0.263513716 C6.62258746,-0.0878379053 7.37741254,-0.0878379053 7.99227788,0.263513716 Z" id="Path" fill="#333333" style="mix-blend-mode: screen;"></path>
        </g>
    </g>
</svg>