<?xml version="1.0" encoding="UTF-8"?>
<svg width="16px" height="16px" viewBox="0 0 16 16" version="1.1" xmlns="http://www.w3.org/2000/svg" xmlns:xlink="http://www.w3.org/1999/xlink">
    <!-- Generator: Sketch 64 (93537) - https://sketch.com -->
    <title>UTTMA Logo</title>
    <desc>Created with Sketch.</desc>
    <defs>
        <path d="M7.99227788,1.26351372 L12.9922779,4.12065657 C13.6154279,4.47674228 14,5.13942916 14,5.85714286 L14,11.5358527 C14,12.2535664 13.6154279,12.9162533 12.9922779,13.272339 L7.99227788,16.1294819 C7.37741254,16.4808335 6.62258746,16.4808335 6.00772212,16.1294819 L1.00772212,13.272339 C0.384572129,12.9162533 0,12.2535664 0,11.5358527 L0,5.85714286 C0,5.13942916 0.384572129,4.47674228 1.00772212,4.12065657 L6.00772212,1.26351372 C6.62258746,0.912162095 7.37741254,0.912162095 7.99227788,1.26351372 Z" id="path-1"></path>
    </defs>
    <g id="UTTMA-Logo" stroke="none" stroke-width="1" fill="none" fill-rule="evenodd">
        <g id="Logo" transform="translate(1.000000, -0.696498)">
            <mask id="mask-2" fill="white">
                <use xlink:href="#path-1"></use>
            </mask>
            <use id="Mask" fill="#D8D8D8" xlink:href="#path-1"></use>
            <g mask="url(#mask-2)">
                <g transform="translate(-1.000000, 0.000000)">
                    <polygon id="Outline-Color" fill="#F5F0DD" opacity="0.681919643" points="0 0.696497786 16 0.696497786 16 16.6964978 0 16.6964978"></polygon>
                    <path d="M14,5.77086703 L14,6.69649779 L11,13.1964846 L5,13.1964846 L2,6.69649779 L2,5.77086703 C2,5.41520055 2.18891065,5.08629949 2.49612756,4.90708895 L7.49612756,1.9904113 C7.80749079,1.80878207 8.19250921,1.80878207 8.50387244,1.9904113 L13.5038724,4.90708895 C13.8110893,5.08629949 14,5.41520055 14,5.77086703 Z" id="Cube" fill="#73DFEB"></path>
                    <path d="M12,6.69649779 L14,5.69649779 L14,11.6221275 C14,11.9777945 13.8110887,12.306696 13.503871,12.4859064 L8.50387103,15.402573 C8.19250851,15.5842012 7.80749149,15.5842012 7.49612897,15.402573 L2.49612897,12.4859064 C2.18891127,12.306696 2,11.9777945 2,11.6221275 L2,5.69649779 L4,6.69649779 L4,8.69649779 C4,10.9056368 5.790861,12.6964978 8,12.6964978 C10.209139,12.6964978 12,10.9056368 12,8.69649779 L12,6.69649779 Z" id="U" fill="#F8691F"></path>
                    <g id="Shading" stroke-width="1" fill="none">
                        <polygon id="Polygon-Copy-4" fill="#FFFFFF" style="mix-blend-mode: multiply;" points="8 16.6964978 8 8.69649779 0 4.69649779 0 16.6964978"></polygon>
                        <polygon id="Polygon-Copy-5" fill="#EAEAEA" style="mix-blend-mode: multiply;" points="8 16.6964978 8 8.69649779 16 4.69649779 16 16.6964978"></polygon>
                        <polygon id="Polygon-Copy-6" fill="#333333" style="mix-blend-mode: screen;" points="0 4.69649779 8 8.69649779 16 4.69649779 16 0.696497786 -1.42108547e-14 0.696497786"></polygon>
                    </g>
                </g>
            </g>
        </g>
    </g>
</svg>